<svg xmlns="http://www.w3.org/2000/svg" xmlns:xlink="http://www.w3.org/1999/xlink" id="Layer_1" data-name="Layer 1" viewBox="0 0 1843.81 1747.21"><defs xmlns="http://www.w3.org/2000/svg"><style>.cls-1{fill:#f2f2f2;}.cls-2{fill:#d3d3d3;}.cls-3{opacity:0.35;}.cls-4{fill:#2a94f4;}.cls-5{fill:#fff;}.cls-6{fill:#0e538c;}.cls-7{fill:#0b4870;}.cls-8{fill:#ffe3ca;}.cls-9{fill:url(#linear-gradient);}.cls-10{fill:#ffbe55;}</style><linearGradient id="linear-gradient" x1="760.12" y1="1279.06" x2="760.12" y2="1106.94" gradientTransform="matrix(1, 0, 0, -1, 0, 2002)" gradientUnits="userSpaceOnUse"><stop offset="0" stop-color="#a3cc39"/><stop offset="0.7" stop-color="#85bd40"/><stop offset="1" stop-color="#65ad45"/></linearGradient></defs><title xmlns="http://www.w3.org/2000/svg">Hulu</title><path xmlns="http://www.w3.org/2000/svg" class="cls-1" d="M101,1271c34.36,222.62,183.7,446.62,398,552,190.41,93.63,381.28,51.09,763-34,280.24-62.47,485.88-111.47,582-288,59-108.4,50.85-217.31,46-282-24.48-326.43-276.08-383.29-340-741-28.63-160.21,10-215-49-279-143.39-155.47-533.5-7.57-591,15C549.43,355.51,23.11,766.35,101,1271Z" transform="translate(-78.1 -128.77)"/><rect xmlns="http://www.w3.org/2000/svg" class="cls-2" x="151.02" y="449.7" width="1015" height="588.03"/><g xmlns="http://www.w3.org/2000/svg" class="cls-3"><path class="cls-4" d="M486.57,1617.14c-171.83,19.82-341.85-99.9-364.87-222.35-19-101.14,73.4-144.8,53.89-273.18C158.73,1010.72,83,999,78.32,902.81c-4.94-101,71.47-231.59,187.64-252.57C399.48,626.13,517,759.2,546.14,877.45c19.78,80.38-27.94,100.5-12.91,176.86C564,1210.56,767.61,1220.25,785.8,1337.79,802.51,1445.69,655.71,1597.63,486.57,1617.14Z" transform="translate(-78.1 -128.77)"/></g><rect xmlns="http://www.w3.org/2000/svg" class="cls-5" x="410.19" y="801.9" width="10.03" height="906.38" transform="translate(-292.3 -36.22) rotate(-10.13)"/><path xmlns="http://www.w3.org/2000/svg" class="cls-5" d="M389.53,1118.93c-83.55,9.2-116.65-109.91-118-115l9.69-2.62c.32,1.16,32.21,115.88,107.23,107.62Z" transform="translate(-78.1 -128.77)"/><path xmlns="http://www.w3.org/2000/svg" class="cls-5" d="M445.22,1430.73c-59.8,6.57-83.31-78-84.28-81.65l9.68-2.61c.22.8,22.24,79.92,73.5,74.28Z" transform="translate(-78.1 -128.77)"/><path xmlns="http://www.w3.org/2000/svg" class="cls-5" d="M419.05,1301.92l-2.24-9.78c68.62-15.72,64.91-94.94,64.86-95.73l10-.58C491.74,1196.72,495.83,1284.33,419.05,1301.92Z" transform="translate(-78.1 -128.77)"/><path xmlns="http://www.w3.org/2000/svg" class="cls-5" d="M463.25,1530.2l-2.25-9.79c48.4-11.08,46-65.56,45.87-67.87l10-.57C516.93,1452.62,520,1517.21,463.25,1530.2Z" transform="translate(-78.1 -128.77)"/><g xmlns="http://www.w3.org/2000/svg" class="cls-3"><path class="cls-4" d="M1467.47,1590.86c170.21,30.79,347.55-77.79,378.37-198.51,25.47-99.71-64-149.2-36.27-276.07,23.93-109.58,100.22-116.46,111.09-212.12,11.41-100.44-56.48-235.69-171.07-264.07-131.69-32.62-257.53,92.64-294.16,208.78-24.89,78.94,21.44,102.08,1.55,177.33-40.7,154-244.53,150.57-270.23,266.7C1163.17,1399.51,1299.93,1560.54,1467.47,1590.86Z" transform="translate(-78.1 -128.77)"/></g><rect xmlns="http://www.w3.org/2000/svg" class="cls-5" x="1108.69" y="1229.11" width="906.38" height="10.03" transform="translate(-87.3 2327.74) rotate(-76.2)"/><path xmlns="http://www.w3.org/2000/svg" class="cls-5" d="M1596.24,1099.89c82.79,14.53,123.45-102.21,125.14-107.18l-9.49-3.23c-.39,1.13-39.58,113.58-113.92,100.53Z" transform="translate(-78.1 -128.77)"/><path xmlns="http://www.w3.org/2000/svg" class="cls-5" d="M1520.68,1407.48c59.25,10.39,88.14-72.54,89.34-76.08l-9.49-3.23c-.27.79-27.32,78.34-78.11,69.42Z" transform="translate(-78.1 -128.77)"/><path xmlns="http://www.w3.org/2000/svg" class="cls-5" d="M1555.05,1280.61l2.87-9.62c-67.47-20.08-58.69-98.9-58.59-99.69l-10-1.21C1489.26,1171,1479.55,1258.14,1555.05,1280.61Z" transform="translate(-78.1 -128.77)"/><path xmlns="http://www.w3.org/2000/svg" class="cls-5" d="M1496.32,1505.59l2.86-9.62c-47.58-14.17-41.7-68.38-41.42-70.68l-10-1.21C1447.71,1424.73,1440.56,1489,1496.32,1505.59Z" transform="translate(-78.1 -128.77)"/><ellipse xmlns="http://www.w3.org/2000/svg" class="cls-6" cx="924.02" cy="1531.23" rx="864" ry="58.5"/><polygon xmlns="http://www.w3.org/2000/svg" class="cls-2" points="1455.02 1199.73 1512.02 1521.73 1489.02 1521.73 1412.02 1203.73 1455.02 1199.73"/><polygon xmlns="http://www.w3.org/2000/svg" class="cls-2" points="1297.02 1199.73 1240.02 1521.73 1263.02 1521.73 1340.02 1203.73 1297.02 1199.73"/><rect xmlns="http://www.w3.org/2000/svg" class="cls-2" x="1275.02" y="1177.73" width="230" height="52" rx="10.34"/><path xmlns="http://www.w3.org/2000/svg" d="M1238.12,1570.5l13,73s-100,2-108-4,73-25,73-25l-8-44Z" transform="translate(-78.1 -128.77)"/><path xmlns="http://www.w3.org/2000/svg" class="cls-7" d="M1397.12,1215.5s-260,95-264,138,73,238,73,238l39-16s-45-190-37-195,232-42,260-77,21.81-62.77,21.81-62.77Z" transform="translate(-78.1 -128.77)"/><rect xmlns="http://www.w3.org/2000/svg" class="cls-7" x="185.52" y="378.23" width="993" height="604"/><rect xmlns="http://www.w3.org/2000/svg" class="cls-5" x="217.02" y="397.39" width="930" height="565.68"/><path xmlns="http://www.w3.org/2000/svg" class="cls-8" d="M1343.12,1080.5l-38,26-149-81s-15-26-21-22c0,0,7,15,4,16-6.37,2.12-34.07-15.5-49-15s20.32,27,44.66,35c0,0,164.34,121,183.34,115s67-41,62-42S1343.12,1080.5,1343.12,1080.5Z" transform="translate(-78.1 -128.77)"/><path xmlns="http://www.w3.org/2000/svg" class="cls-9" d="M1021.18,776.61H979.61V846a10.73,10.73,0,0,1-10.87,11.11H944.56c-3.38-.24-6-1.2-8-3.13a11.76,11.76,0,0,1-3.15-8V776.61H891.87v73c.24,9.67,1.94,18.13,6,24.89a38.39,38.39,0,0,0,16.44,15.23,58.05,58.05,0,0,0,24.89,5.32h40.37v-.48c8.71,0,16.2-1.94,22.48-5.56a37.55,37.55,0,0,0,14-16,52.46,52.46,0,0,0,5.07-23.45Zm-416,4.35a55.67,55.67,0,0,0-23.93-4.35H554.4L544,777.82c-2.42.72-3.63,1.21-3.63,1.21V722.94H499.05V895.06h41.33V825.44a11.15,11.15,0,0,1,11.37-10.88h24.17a11.68,11.68,0,0,1,7.73,3.14,11.44,11.44,0,0,1,3.39,7.74v69.62h41.33V820.12c0-10.4-2.17-18.85-6.28-25.38A37.65,37.65,0,0,0,605.17,781Zm140.68,65a10.74,10.74,0,0,1-11.12,11.12H710.56A11.13,11.13,0,0,1,699.44,846V776.61H658.11v73c0,9.67,1.93,18.13,5.8,24.89a37,37,0,0,0,16.43,15.23,57.32,57.32,0,0,0,24.9,5.32h40.61v-.48c8.7,0,16.19-1.94,22.24-5.56a39.66,39.66,0,0,0,14.26-16,59.69,59.69,0,0,0,5.08-23.45v-73H745.85V846Zm73,49.08h41.33V722.94H818.86Z" transform="translate(-78.1 -128.77)"/><path xmlns="http://www.w3.org/2000/svg" d="M1412.12,1572.5l46,73s-106,11-103,0,54-19,54-19l-16-44,21-10" transform="translate(-78.1 -128.77)"/><path xmlns="http://www.w3.org/2000/svg" class="cls-7" d="M1413.12,838.5s58-40,98-10,2,82,27,111,46-13,121,119-75,38-35,167-102,7-106,6-58-175-50-204-50-55-64-67S1369.12,843.5,1413.12,838.5Z" transform="translate(-78.1 -128.77)"/><path xmlns="http://www.w3.org/2000/svg" class="cls-10" d="M1325.62,1084s32,53,51,46l76-91-10-67S1325.62,1073,1325.62,1084Z" transform="translate(-78.1 -128.77)"/><path xmlns="http://www.w3.org/2000/svg" class="cls-6" d="M1549.28,1254.29s-63.16,77.21-162.16,116.21-62,50-62,50l104,147-40,34s-158-162-143-214,172-167,172-167Z" transform="translate(-78.1 -128.77)"/><path xmlns="http://www.w3.org/2000/svg" class="cls-10" d="M1422.62,1011s-3,80,0,110-48,107-48,107,146.53,41.53,168.26,33.77S1560.62,1108,1560.62,1105s-42-120-42-120l-27-23S1423.62,953,1422.62,1011Z" transform="translate(-78.1 -128.77)"/><polygon xmlns="http://www.w3.org/2000/svg" class="cls-7" points="1155.02 1041.73 1155.02 1054.23 1184.89 1058.23 1271.52 1058.23 1271.02 1041.73 1190.87 1045.23 1155.02 1041.73"/><path xmlns="http://www.w3.org/2000/svg" class="cls-8" d="M1411.12,859.5s-21,95,8,101,41,0,41,0l-9,43s48,2,51-12-17-76-17-76,23-31,10-36-18,10-18,10v-39S1452.12,898.5,1411.12,859.5Z" transform="translate(-78.1 -128.77)"/><path xmlns="http://www.w3.org/2000/svg" class="cls-8" d="M1336.62,1187s-27-17-1-12,39,12,39,12l180.5-26.5,2-38,35.5-5.5s11,55,0,70-232,16-258,16a67.43,67.43,0,0,1-43-16Z" transform="translate(-78.1 -128.77)"/><path xmlns="http://www.w3.org/2000/svg" class="cls-10" d="M1504.12,972.5s51.5,25.5,70.5,66.5,28,87,28,87l-52,17s-50-101-48-122S1504.12,972.5,1504.12,972.5Z" transform="translate(-78.1 -128.77)"/><polygon xmlns="http://www.w3.org/2000/svg" class="cls-6" points="1190.02 1046.73 1271.02 1041.73 1250.7 1037.9 1155.02 1041.73 1190.02 1046.73"/><circle xmlns="http://www.w3.org/2000/svg" class="cls-10" cx="1171.02" cy="1049.73" r="4"/><rect xmlns="http://www.w3.org/2000/svg" class="cls-2" x="28.02" y="1189.73" width="309" height="33"/><rect xmlns="http://www.w3.org/2000/svg" class="cls-10" x="138.02" y="1082.73" width="47" height="105"/><rect xmlns="http://www.w3.org/2000/svg" class="cls-7" x="283.12" y="1213.5" width="47" height="105" transform="translate(-724.09 248.81) rotate(-33.38)"/><rect xmlns="http://www.w3.org/2000/svg" class="cls-2" x="1220.02" y="531.73" width="384" height="33"/><rect xmlns="http://www.w3.org/2000/svg" class="cls-7" x="1271.02" y="379.73" width="48" height="152"/><rect xmlns="http://www.w3.org/2000/svg" class="cls-7" x="1330.02" y="424.73" width="47" height="105"/><path xmlns="http://www.w3.org/2000/svg" class="cls-10" d="M774,379.28A72.12,72.12,0,0,0,715.11,411l22.54,22.65a39.68,39.68,0,0,1,72.49.18l22.64-22.54A72.11,72.11,0,0,0,774,379.28Z" transform="translate(-78.1 -128.77)"/><path xmlns="http://www.w3.org/2000/svg" class="cls-10" d="M774.14,332a119.21,119.21,0,0,0-92.69,45.13L701,396.79a89.81,89.81,0,0,1,145.92.36l19.67-19.58A119.19,119.19,0,0,0,774.14,332Z" transform="translate(-78.1 -128.77)"/><path xmlns="http://www.w3.org/2000/svg" class="cls-10" d="M774.26,281.5A169.51,169.51,0,0,0,645.7,341.2l22.53,22.64a135.71,135.71,0,0,1,211.66.51l22.65-22.53A169.54,169.54,0,0,0,774.26,281.5Z" transform="translate(-78.1 -128.77)"/><path xmlns="http://www.w3.org/2000/svg" class="cls-10" d="M778,472.74a23.13,23.13,0,1,1,18.62-26.89A23.12,23.12,0,0,1,778,472.74Z" transform="translate(-78.1 -128.77)"/></svg>